JosefinSlabFix-LightItalic_ik.ufo
<glyph name="quotedbl" format="1">
  <advance width="324"/>
  <unicode hex="0022"/>
  <outline>
    <contour>
      <point x="236" y="474" type="line"/>
      <point x="266" y="723" type="line"/>
      <point x="305" y="723" type="line"/>
      <point x="271" y="474" type="line"/>
    </contour>
    <contour>
      <point x="102" y="474" type="line"/>
      <point x="133" y="723" type="line"/>
      <point x="171" y="723" type="line"/>
      <point x="137" y="474" type="line"/>
    </contour>
  </outline>
</glyph>
<glyph name="asterisk" format="1">
  <advance width="398"/>
  <unicode hex="002A"/>
  <outline>
    <contour>
      <point x="264" y="575" type="line"/>
      <point x="359" y="517" type="line"/>
      <point x="354" y="510"/>
      <point x="345" y="497"/>
      <point x="340" y="490" type="qcurve"/>
      <point x="246" y="550" type="line"/>
      <point x="241" y="521"/>
      <point x="234" y="463"/>
      <point x="229" y="434" type="qcurve"/>
      <point x="202" y="434" type="line"/>
      <point x="217" y="550" type="line"/>
      <point x="189" y="535"/>
      <point x="137" y="506"/>
      <point x="109" y="492" type="qcurve"/>
      <point x="97" y="519" type="line"/>
      <point x="205" y="576" type="line"/>
      <point x="112" y="636" type="line"/>
      <point x="128" y="660" type="line"/>
      <point x="223" y="600" type="line"/>
      <point x="237" y="720" type="line"/>
      <point x="268" y="720" type="line"/>
      <point x="264" y="690"/>
      <point x="257" y="630"/>
      <point x="252" y="600" type="qcurve"/>
      <point x="280" y="614"/>
      <point x="336" y="644"/>
      <point x="363" y="659" type="qcurve"/>
      <point x="366" y="653"/>
      <point x="372" y="641"/>
      <point x="374" y="635" type="qcurve"/>
    </contour>
  </outline>
</glyph>
<glyph name="zero" format="1">
  <advance width="663"/>
  <unicode hex="0030"/>
  <outline>
    <contour>
      <point x="69" y="317" type="qcurve"/>
      <point x="74" y="377"/>
      <point x="119" y="500"/>
      <point x="199" y="599"/>
      <point x="311" y="661"/>
      <point x="383" y="661" type="qcurve"/>
      <point x="453" y="661"/>
      <point x="547" y="597"/>
      <point x="600" y="500"/>
      <point x="615" y="381"/>
      <point x="608" y="325" type="qcurve"/>
      <point x="599" y="253"/>
      <point x="540" y="131"/>
      <point x="456" y="42"/>
      <point x="351" y="-7"/>
      <point x="295" y="-7" type="qcurve"/>
      <point x="241" y="-7"/>
      <point x="152" y="42"/>
      <point x="90" y="128"/>
      <point x="62" y="247"/>
    </contour>
    <contour>
      <point x="107" y="329" type="qcurve"/>
      <point x="98" y="262"/>
      <point x="123" y="152"/>
      <point x="178" y="72"/>
      <point x="256" y="28"/>
      <point x="301" y="28" type="qcurve"/>
      <point x="346" y="28"/>
      <point x="437" y="72"/>
      <point x="513" y="152"/>
      <point x="565" y="264"/>
      <point x="573" y="332" type="qcurve"/>
      <point x="580" y="396"/>
      <point x="559" y="503"/>
      <point x="508" y="581"/>
      <point x="429" y="625"/>
      <point x="378" y="625" type="qcurve"/>
      <point x="325" y="625"/>
      <point x="233" y="579"/>
      <point x="162" y="499"/>
      <point x="115" y="390"/>
    </contour>
  </outline>
</glyph>
<glyph name="at" format="1">
  <advance width="930"/>
  <unicode hex="0040"/>
  <outline>
    <contour>
      <point x="230" y="172" type="qcurve"/>
      <point x="230" y="218"/>
      <point x="268" y="299"/>
      <point x="331" y="360"/>
      <point x="413" y="396"/>
      <point x="458" y="396" type="qcurve"/>
      <point x="489" y="396"/>
      <point x="541" y="379"/>
      <point x="581" y="349"/>
      <point x="609" y="310"/>
      <point x="615" y="288" type="qcurve"/>
      <point x="618" y="313"/>
      <point x="626" y="363"/>
      <point x="631" y="387" type="qcurve"/>
      <point x="662" y="387" type="line"/>
      <point x="618" y="32" type="line"/>
      <point x="689" y="32" type="line"/>
      <point x="716" y="32"/>
      <point x="765" y="57"/>
      <point x="802" y="109"/>
      <point x="824" y="187"/>
      <point x="824" y="241" type="qcurve"/>
      <point x="824" y="308"/>
      <point x="778" y="426"/>
      <point x="692" y="514"/>
      <point x="572" y="565"/>
      <point x="499" y="565" type="qcurve"/>
      <point x="409" y="565"/>
      <point x="254" y="496"/>
      <point x="140" y="382"/>
      <point x="75" y="233"/>
      <point x="75" y="154" type="qcurve"/>
      <point x="75" y="85"/>
      <point x="124" y="-36"/>
      <point x="211" y="-126"/>
      <point x="332" y="-178"/>
      <point x="403" y="-178" type="qcurve"/>
      <point x="464" y="-178"/>
      <point x="578" y="-141"/>
      <point x="629" y="-109" type="qcurve"/>
      <point x="633" y="-115"/>
      <point x="641" y="-127"/>
      <point x="646" y="-133" type="qcurve"/>
      <point x="591" y="-171"/>
      <point x="464" y="-211"/>
      <point x="398" y="-211" type="qcurve"/>
      <point x="321" y="-211"/>
      <point x="190" y="-154"/>
      <point x="95" y="-56"/>
      <point x="41" y="77"/>
      <point x="41" y="153" type="qcurve"/>
      <point x="41" y="241"/>
      <point x="113" y="402"/>
      <point x="238" y="525"/>
      <point x="407" y="598"/>
      <point x="504" y="598" type="qcurve"/>
      <point x="584" y="598"/>
      <point x="715" y="542"/>
      <point x="808" y="446"/>
      <point x="858" y="317"/>
      <point x="858" y="245" type="qcurve"/>
      <point x="858" y="175"/>
      <point x="827" y="81"/>
      <point x="777" y="24"/>
      <point x="713" y="0"/>
      <point x="680" y="0" type="qcurve"/>
      <point x="579" y="0" type="line"/>
      <point x="585" y="48" type="line"/>
      <point x="587" y="61"/>
      <point x="591" y="86"/>
      <point x="592" y="99" type="qcurve"/>
      <point x="569" y="55"/>
      <point x="472" y="-7"/>
      <point x="409" y="-7" type="qcurve"/>
      <point x="370" y="-7"/>
      <point x="304" y="21"/>
      <point x="256" y="69"/>
      <point x="230" y="134"/>
    </contour>
    <contour>
      <point x="266" y="177" type="qcurve"/>
      <point x="266" y="145"/>
      <point x="288" y="91"/>
      <point x="327" y="50"/>
      <point x="382" y="27"/>
      <point x="414" y="27" type="qcurve"/>
      <point x="452" y="27"/>
      <point x="521" y="56"/>
      <point x="573" y="107"/>
      <point x="604" y="173"/>
      <point x="604" y="211" type="qcurve"/>
      <point x="604" y="243"/>
      <point x="582" y="298"/>
      <point x="543" y="339"/>
      <point x="488" y="362"/>
      <point x="455" y="362" type="qcurve"/>
      <point x="417" y="362"/>
      <point x="348" y="333"/>
      <point x="296" y="282"/>
      <point x="266" y="215"/>
    </contour>
  </outline>
</glyph>
<glyph name="C" format="1">
  <advance width="655"/>
  <unicode hex="0043"/>
  <outline>
    <contour>
      <point x="603" y="572" type="line"/>
      <point x="611" y="643" type="line"/>
      <point x="581" y="660"/>
      <point x="508" y="676"/>
      <point x="470" y="676" type="qcurve"/>
      <point x="398" y="676"/>
      <point x="265" y="619"/>
      <point x="165" y="521"/>
      <point x="105" y="390"/>
      <point x="105" y="317" type="qcurve"/>
      <point x="105" y="260"/>
      <point x="143" y="157"/>
      <point x="215" y="80"/>
      <point x="319" y="34"/>
      <point x="384" y="34" type="qcurve"/>
      <point x="439" y="34"/>
      <point x="535" y="63"/>
      <point x="567" y="82" type="qcurve"/>
      <point x="583" y="45" type="line"/>
      <point x="544" y="23"/>
      <point x="441" y="-8"/>
      <point x="380" y="-8" type="qcurve"/>
      <point x="306" y="-8"/>
      <point x="188" y="42"/>
      <point x="106" y="129"/>
      <point x="63" y="245"/>
      <point x="63" y="310" type="qcurve"/>
      <point x="63" y="395"/>
      <point x="131" y="542"/>
      <point x="244" y="652"/>
      <point x="392" y="715"/>
      <point x="472" y="715" type="qcurve"/>
      <point x="526" y="715"/>
      <point x="621" y="687"/>
      <point x="653" y="665" type="qcurve"/>
      <point x="642" y="572" type="line"/>
    </contour>
  </outline>
</glyph>
<glyph name="W" format="1">
  <advance width="1003"/>
  <unicode hex="0057"/>
  <outline>
    <contour>
      <point x="253" y="707" type="line"/>
      <point x="248" y="670" type="line"/>
      <point x="168" y="670" type="line"/>
      <point x="183" y="616"/>
      <point x="217" y="492"/>
      <point x="250" y="368"/>
      <point x="281" y="251"/>
      <point x="304" y="158"/>
      <point x="319" y="97"/>
      <point x="320" y="91" type="qcurve"/>
      <point x="320" y="90"/>
      <point x="322" y="81"/>
      <point x="323" y="72"/>
      <point x="325" y="64"/>
      <point x="325" y="63" type="qcurve"/>
      <point x="337" y="90" type="line"/>
      <point x="337" y="91"/>
      <point x="352" y="123"/>
      <point x="376" y="172"/>
      <point x="405" y="235"/>
      <point x="420" y="267" type="qcurve"/>
      <point x="500" y="439" type="line"/>
      <point x="483" y="511"/>
      <point x="469" y="568" type="qcurve"/>
      <point x="463" y="592"/>
      <point x="451" y="640"/>
      <point x="442" y="678"/>
      <point x="436" y="704"/>
      <point x="436" y="706" type="qcurve"/>
      <point x="477" y="706" type="line"/>
      <point x="509" y="580"/>
      <point x="538" y="464" type="qcurve"/>
      <point x="550" y="414"/>
      <point x="576" y="310"/>
      <point x="600" y="211"/>
      <point x="620" y="124"/>
      <point x="627" y="91" type="qcurve"/>
      <point x="633" y="63" type="line"/>
      <point x="644" y="91" type="line"/>
      <point x="647" y="98"/>
      <point x="680" y="166"/>
      <point x="731" y="268"/>
      <point x="796" y="395"/>
      <point x="864" y="527"/>
      <point x="931" y="655"/>
      <point x="959" y="707" type="qcurve"/>
      <point x="1047" y="707" type="line"/>
      <point x="1042" y="670" type="line"/>
      <point x="982" y="670" type="line"/>
      <point x="953" y="616"/>
      <point x="881" y="478"/>
      <point x="804" y="330"/>
      <point x="730" y="184"/>
      <point x="669" y="64"/>
      <point x="627" y="-20"/>
      <point x="621" y="-32" type="qcurve"/>
      <point x="518" y="369" type="line"/>
      <point x="518" y="371"/>
      <point x="514" y="389"/>
      <point x="513" y="391" type="qcurve"/>
      <point x="513" y="389"/>
      <point x="510" y="383"/>
      <point x="508" y="379" type="qcurve"/>
      <point x="504" y="369" type="line"/>
      <point x="463" y="285"/>
      <point x="426" y="208" type="qcurve"/>
      <point x="410" y="175"/>
      <point x="377" y="107"/>
      <point x="347" y="43"/>
      <point x="321" y="-12"/>
      <point x="312" y="-32" type="qcurve"/>
      <point x="291" y="37"/>
      <point x="245" y="207"/>
      <point x="197" y="391"/>
      <point x="147" y="580"/>
      <point x="122" y="670" type="qcurve"/>
      <point x="47" y="670" type="line"/>
      <point x="52" y="707" type="line"/>
    </contour>
  </outline>
</glyph>
<glyph name="p" format="1">
  <advance width="540"/>
  <unicode hex="0070"/>
  <outline>
    <contour>
      <point x="492" y="216" type="qcurve"/>
      <point x="492" y="169"/>
      <point x="455" y="88"/>
      <point x="393" y="28"/>
      <point x="309" y="-7"/>
      <point x="263" y="-7" type="qcurve"/>
      <point x="204" y="-7"/>
      <point x="120" y="54"/>
      <point x="106" y="99" type="qcurve"/>
      <point x="104" y="86"/>
      <point x="102" y="61"/>
      <point x="101" y="48" type="qcurve"/>
      <point x="78" y="-135" type="line"/>
      <point x="79" y="-135" type="line"/>
      <point x="76" y="-156" type="line"/>
      <point x="153" y="-156" type="line"/>
      <point x="149" y="-187" type="line"/>
      <point x="-37" y="-187" type="line"/>
      <point x="-33" y="-156" type="line"/>
      <point x="40" y="-156" type="line"/>
      <point x="104" y="356" type="line"/>
      <point x="30" y="356" type="line"/>
      <point x="34" y="387" type="line"/>
      <point x="141" y="387" type="line"/>
      <point x="141" y="385"/>
      <point x="139" y="363"/>
      <point x="135" y="333"/>
      <point x="131" y="300"/>
      <point x="130" y="288" type="qcurve"/>
      <point x="143" y="310"/>
      <point x="182" y="350"/>
      <point x="229" y="379"/>
      <point x="284" y="396"/>
      <point x="314" y="396" type="qcurve"/>
      <point x="353" y="396"/>
      <point x="419" y="369"/>
      <point x="466" y="321"/>
      <point x="492" y="255"/>
    </contour>
    <contour>
      <point x="455" y="213" type="qcurve"/>
      <point x="455" y="244"/>
      <point x="434" y="298"/>
      <point x="395" y="339"/>
      <point x="341" y="362"/>
      <point x="308" y="362" type="qcurve"/>
      <point x="270" y="362"/>
      <point x="201" y="333"/>
      <point x="149" y="282"/>
      <point x="118" y="215"/>
      <point x="118" y="177" type="qcurve"/>
      <point x="118" y="145"/>
      <point x="140" y="91"/>
      <point x="180" y="50"/>
      <point x="234" y="27"/>
      <point x="267" y="27" type="qcurve"/>
      <point x="305" y="27"/>
      <point x="374" y="56"/>
      <point x="425" y="107"/>
      <point x="455" y="175"/>
    </contour>
  </outline>
</glyph>
<glyph name="v" format="1">
  <advance width="468"/>
  <unicode hex="0076"/>
  <outline>
    <contour>
      <point x="19" y="388" type="line"/>
      <point x="169" y="388" type="line"/>
      <point x="165" y="357" type="line"/>
      <point x="108" y="357" type="line"/>
      <point x="115" y="335"/>
      <point x="136" y="272"/>
      <point x="158" y="203"/>
      <point x="179" y="135"/>
      <point x="197" y="81"/>
      <point x="207" y="46"/>
      <point x="207" y="45" type="qcurve"/>
      <point x="207" y="46"/>
      <point x="226" y="80"/>
      <point x="256" y="135"/>
      <point x="294" y="202"/>
      <point x="333" y="271"/>
      <point x="369" y="334"/>
      <point x="382" y="356" type="qcurve"/>
      <point x="336" y="356" type="line"/>
      <point x="340" y="388" type="line"/>
      <point x="476" y="388" type="line"/>
      <point x="472" y="356" type="line"/>
      <point x="419" y="356" type="line"/>
      <point x="405" y="332"/>
      <point x="364" y="262"/>
      <point x="318" y="182"/>
      <point x="271" y="100"/>
      <point x="231" y="32"/>
      <point x="203" y="-17"/>
      <point x="199" y="-23" type="qcurve"/>
      <point x="196" y="-16"/>
      <point x="179" y="33"/>
      <point x="156" y="102"/>
      <point x="128" y="184"/>
      <point x="101" y="264"/>
      <point x="78" y="334"/>
      <point x="70" y="357" type="qcurve"/>
      <point x="15" y="357" type="line"/>
    </contour>
  </outline>
</glyph>
<glyph name="w" format="1">
  <advance width="696"/>
  <unicode hex="0077"/>
  <outline>
    <contour>
      <point x="571" y="388" type="line"/>
      <point x="705" y="388" type="line"/>
      <point x="701" y="356" type="line"/>
      <point x="647" y="356" type="line"/>
      <point x="431" y="-23" type="line"/>
      <point x="408" y="47"/>
      <point x="366" y="185"/>
      <point x="342" y="256" type="qcurve"/>
      <point x="193" y="-23" type="line"/>
      <point x="162" y="73"/>
      <point x="101" y="260"/>
      <point x="72" y="357" type="qcurve"/>
      <point x="15" y="357" type="line"/>
      <point x="19" y="388" type="line"/>
      <point x="169" y="388" type="line"/>
      <point x="165" y="357" type="line"/>
      <point x="108" y="357" type="line"/>
      <point x="136" y="267"/>
      <point x="180" y="119"/>
      <point x="202" y="45" type="qcurve"/>
      <point x="229" y="97"/>
      <point x="290" y="213"/>
      <point x="331" y="290" type="qcurve"/>
      <point x="299" y="388" type="line"/>
      <point x="331" y="388" type="line"/>
      <point x="347" y="337"/>
      <point x="384" y="218"/>
      <point x="400" y="166" type="qcurve"/>
      <point x="418" y="105"/>
      <point x="436" y="45" type="qcurve"/>
      <point x="467" y="98"/>
      <point x="499" y="153" type="qcurve"/>
      <point x="526" y="200"/>
      <point x="587" y="308"/>
      <point x="613" y="356" type="qcurve"/>
      <point x="567" y="356" type="line"/>
    </contour>
  </outline>
</glyph>
<glyph name="cent" format="1">
  <advance width="433"/>
  <unicode hex="00A2"/>
  <outline>
    <contour>
      <point x="387" y="352" type="qcurve"/>
      <point x="379" y="290" type="line"/>
      <point x="349" y="290" type="line"/>
      <point x="353" y="332" type="line"/>
      <point x="314" y="362"/>
      <point x="261" y="362" type="qcurve"/>
      <point x="220" y="27" type="line"/>
      <point x="250" y="27"/>
      <point x="307" y="46"/>
      <point x="330" y="63" type="qcurve"/>
      <point x="335" y="57"/>
      <point x="344" y="44"/>
      <point x="349" y="37" type="qcurve"/>
      <point x="291" y="-5"/>
      <point x="216" y="-7" type="qcurve"/>
      <point x="209" y="-68" type="line"/>
      <point x="181" y="-68" type="line"/>
      <point x="188" y="-5" type="line"/>
      <point x="153" y="-1"/>
      <point x="97" y="30"/>
      <point x="57" y="77"/>
      <point x="35" y="138"/>
      <point x="35" y="173" type="qcurve"/>
      <point x="35" y="215"/>
      <point x="67" y="291"/>
      <point x="122" y="351"/>
      <point x="196" y="389"/>
      <point x="237" y="394" type="qcurve"/>
      <point x="244" y="452" type="line"/>
      <point x="272" y="452" type="line"/>
      <point x="265" y="396" type="line"/>
      <point x="300" y="396"/>
      <point x="363" y="373"/>
    </contour>
    <contour>
      <point x="70" y="177" type="qcurve"/>
      <point x="70" y="120"/>
      <point x="137" y="37"/>
      <point x="192" y="29" type="qcurve"/>
      <point x="233" y="360" type="line"/>
      <point x="199" y="355"/>
      <point x="140" y="322"/>
      <point x="96" y="273"/>
      <point x="70" y="211"/>
    </contour>
  </outline>
</glyph>
<glyph name="yen" format="1">
  <advance width="749"/>
  <unicode hex="00A5"/>
  <outline>
    <contour>
      <point x="391" y="255" type="line"/>
      <point x="377" y="141" type="line"/>
      <point x="523" y="141" type="line"/>
      <point x="519" y="114" type="line"/>
      <point x="374" y="114" type="line"/>
      <point x="364" y="37" type="line"/>
      <point x="444" y="37" type="line"/>
      <point x="440" y="0" type="line"/>
      <point x="238" y="0" type="line"/>
      <point x="242" y="37" type="line"/>
      <point x="322" y="37" type="line"/>
      <point x="332" y="114" type="line"/>
      <point x="186" y="114" type="line"/>
      <point x="190" y="141" type="line"/>
      <point x="335" y="141" type="line"/>
      <point x="350" y="255" type="line"/>
      <point x="339" y="277" type="line"/>
      <point x="206" y="277" type="line"/>
      <point x="210" y="304" type="line"/>
      <point x="326" y="304" type="line"/>
      <point x="307" y="344"/>
      <point x="264" y="439"/>
      <point x="220" y="537"/>
      <point x="177" y="631"/>
      <point x="159" y="670" type="qcurve"/>
      <point x="82" y="670" type="line"/>
      <point x="87" y="707" type="line"/>
      <point x="288" y="707" type="line"/>
      <point x="283" y="670" type="line"/>
      <point x="205" y="670" type="line"/>
      <point x="223" y="631"/>
      <point x="264" y="543"/>
      <point x="306" y="452"/>
      <point x="348" y="361"/>
      <point x="366" y="319" type="qcurve"/>
      <point x="375" y="291" type="line"/>
      <point x="380" y="298"/>
      <point x="386" y="311"/>
      <point x="390" y="319" type="qcurve"/>
      <point x="420" y="361"/>
      <point x="483" y="451"/>
      <point x="546" y="543"/>
      <point x="608" y="631"/>
      <point x="636" y="670" type="qcurve"/>
      <point x="558" y="670" type="line"/>
      <point x="563" y="707" type="line"/>
      <point x="766" y="707" type="line"/>
      <point x="762" y="670" type="line"/>
      <point x="684" y="670" type="line"/>
      <point x="425" y="304" type="line"/>
      <point x="543" y="304" type="line"/>
      <point x="539" y="277" type="line"/>
      <point x="406" y="277" type="line"/>
    </contour>
  </outline>
</glyph>
<glyph name="dieresis" format="1">
  <advance width="372"/>
  <unicode hex="00A8"/>
  <outline>
    <contour>
      <point x="306" y="505" type="qcurve"/>
      <point x="306" y="519"/>
      <point x="327" y="539"/>
      <point x="341" y="539" type="qcurve"/>
      <point x="352" y="539"/>
      <point x="367" y="523"/>
      <point x="367" y="511" type="qcurve"/>
      <point x="367" y="497"/>
      <point x="346" y="478"/>
      <point x="333" y="478" type="qcurve"/>
      <point x="322" y="478"/>
      <point x="306" y="494"/>
    </contour>
    <contour>
      <point x="134" y="505" type="qcurve"/>
      <point x="134" y="519"/>
      <point x="155" y="539"/>
      <point x="169" y="539" type="qcurve"/>
      <point x="180" y="539"/>
      <point x="195" y="523"/>
      <point x="195" y="511" type="qcurve"/>
      <point x="195" y="497"/>
      <point x="174" y="478"/>
      <point x="161" y="478" type="qcurve"/>
      <point x="150" y="478"/>
      <point x="134" y="494"/>
    </contour>
  </outline>
</glyph>
<glyph name="logicalnot" format="1">
  <advance width="529"/>
  <unicode hex="00AC"/>
  <outline>
    <contour>
      <point x="402" y="149" type="line"/>
      <point x="410" y="215" type="line"/>
      <point x="85" y="215" type="line"/>
      <point x="89" y="244" type="line"/>
      <point x="450" y="244" type="line"/>
      <point x="438" y="149" type="line"/>
    </contour>
  </outline>
</glyph>
<glyph name="ordmasculine" format="1">
  <advance width="402"/>
  <unicode hex="00BA"/>
  <outline>
    <contour>
      <point x="76" y="446" type="qcurve"/>
      <point x="80" y="476"/>
      <point x="109" y="530"/>
      <point x="153" y="569"/>
      <point x="209" y="592"/>
      <point x="240" y="592" type="qcurve"/>
      <point x="268" y="592"/>
      <point x="316" y="572"/>
      <point x="351" y="537"/>
      <point x="370" y="489"/>
      <point x="370" y="462" type="qcurve"/>
      <point x="370" y="428"/>
      <point x="343" y="369"/>
      <point x="298" y="326"/>
      <point x="237" y="301"/>
      <point x="204" y="301" type="qcurve"/>
      <point x="173" y="301"/>
      <point x="123" y="323"/>
      <point x="88" y="362"/>
      <point x="72" y="415"/>
    </contour>
    <contour>
      <point x="101" y="446" type="qcurve"/>
      <point x="98" y="421"/>
      <point x="111" y="377"/>
      <point x="140" y="344"/>
      <point x="181" y="325"/>
      <point x="207" y="325" type="qcurve"/>
      <point x="234" y="325"/>
      <point x="284" y="346"/>
      <point x="321" y="382"/>
      <point x="344" y="431"/>
      <point x="344" y="458" type="qcurve"/>
      <point x="344" y="504"/>
      <point x="283" y="567"/>
      <point x="236" y="567" type="qcurve"/>
      <point x="211" y="567"/>
      <point x="165" y="548"/>
      <point x="128" y="515"/>
      <point x="104" y="471"/>
    </contour>
  </outline>
</glyph>
<glyph name="threequarters" format="1">
  <advance width="989"/>
  <unicode hex="00BE"/>
  <outline>
    <contour>
      <point x="910" y="26" type="line"/>
      <point x="907" y="0" type="line"/>
      <point x="757" y="0" type="line"/>
      <point x="760" y="26" type="line"/>
      <point x="820" y="26" type="line"/>
      <point x="833" y="133" type="line"/>
      <point x="582" y="133" type="line"/>
      <point x="661" y="223"/>
      <point x="824" y="403"/>
      <point x="904" y="492" type="qcurve"/>
      <point x="864" y="160" type="line"/>
      <point x="936" y="160" type="line"/>
      <point x="933" y="133" type="line"/>
      <point x="860" y="133" type="line"/>
      <point x="848" y="26" type="line"/>
    </contour>
    <contour>
      <point x="110" y="636" type="line"/>
      <point x="116" y="683" type="line"/>
      <point x="120" y="710" type="line"/>
      <point x="372" y="710" type="line"/>
      <point x="331" y="662"/>
      <point x="248" y="566"/>
      <point x="207" y="518" type="qcurve"/>
      <point x="236" y="517"/>
      <point x="286" y="495"/>
      <point x="322" y="457"/>
      <point x="343" y="407"/>
      <point x="343" y="377" type="qcurve"/>
      <point x="343" y="341"/>
      <point x="313" y="277"/>
      <point x="262" y="228"/>
      <point x="196" y="200"/>
      <point x="161" y="200" type="qcurve"/>
      <point x="125" y="200"/>
      <point x="69" y="229"/>
      <point x="49" y="252" type="qcurve"/>
      <point x="54" y="257"/>
      <point x="67" y="268"/>
      <point x="73" y="273" type="qcurve"/>
      <point x="87" y="253"/>
      <point x="134" y="227"/>
      <point x="163" y="227" type="qcurve"/>
      <point x="192" y="227"/>
      <point x="247" y="251"/>
      <point x="289" y="291"/>
      <point x="315" y="345"/>
      <point x="315" y="374" type="qcurve"/>
      <point x="315" y="399"/>
      <point x="297" y="443"/>
      <point x="264" y="475"/>
      <point x="220" y="493"/>
      <point x="195" y="493" type="qcurve"/>
      <point x="169" y="493"/>
      <point x="145" y="477" type="qcurve"/>
      <point x="188" y="529"/>
      <point x="276" y="631"/>
      <point x="319" y="683" type="qcurve"/>
      <point x="143" y="683" type="line"/>
      <point x="138" y="636" type="line"/>
    </contour>
    <contour>
      <point x="326" y="-19" type="line"/>
      <point x="699" y="739" type="line"/>
      <point x="735" y="739" type="line"/>
      <point x="362" y="-19" type="line"/>
    </contour>
    <contour>
      <point x="868" y="417" type="line"/>
      <point x="639" y="160" type="line"/>
      <point x="836" y="160" type="line"/>
    </contour>
  </outline>
</glyph>
<glyph name="Egrave" format="1">
  <advance width="638"/>
  <unicode hex="00C8"/>
  <outline>
    <contour>
      <point x="572" y="596" type="line"/>
      <point x="581" y="669" type="line"/>
      <point x="229" y="669" type="line"/>
      <point x="193" y="375" type="line"/>
      <point x="545" y="375" type="line"/>
      <point x="540" y="337" type="line"/>
      <point x="188" y="337" type="line"/>
      <point x="152" y="39" type="line"/>
      <point x="518" y="39" type="line"/>
      <point x="527" y="114" type="line"/>
      <point x="566" y="114" type="line"/>
      <point x="557" y="39" type="line"/>
      <point x="554" y="16" type="line"/>
      <point x="552" y="0" type="line"/>
      <point x="29" y="0" type="line"/>
      <point x="34" y="37" type="line"/>
      <point x="110" y="37" type="line"/>
      <point x="188" y="670" type="line"/>
      <point x="111" y="670" type="line"/>
      <point x="116" y="707" type="line"/>
      <point x="625" y="707" type="line"/>
      <point x="623" y="690" type="line"/>
      <point x="611" y="596" type="line"/>
    </contour>
    <contour>
      <point x="372" y="879" type="line"/>
      <point x="447" y="746" type="line"/>
      <point x="417" y="746" type="line"/>
      <point x="396" y="779"/>
      <point x="355" y="846"/>
      <point x="335" y="879" type="qcurve"/>
    </contour>
  </outline>
</glyph>
<glyph name="Ecircumflex" format="1">
  <advance width="638"/>
  <unicode hex="00CA"/>
  <outline>
    <contour>
      <point x="572" y="596" type="line"/>
      <point x="581" y="669" type="line"/>
      <point x="229" y="669" type="line"/>
      <point x="193" y="375" type="line"/>
      <point x="545" y="375" type="line"/>
      <point x="540" y="337" type="line"/>
      <point x="188" y="337" type="line"/>
      <point x="152" y="39" type="line"/>
      <point x="518" y="39" type="line"/>
      <point x="527" y="114" type="line"/>
      <point x="566" y="114" type="line"/>
      <point x="557" y="39" type="line"/>
      <point x="554" y="16" type="line"/>
      <point x="552" y="0" type="line"/>
      <point x="29" y="0" type="line"/>
      <point x="34" y="37" type="line"/>
      <point x="110" y="37" type="line"/>
      <point x="188" y="670" type="line"/>
      <point x="111" y="670" type="line"/>
      <point x="116" y="707" type="line"/>
      <point x="625" y="707" type="line"/>
      <point x="623" y="690" type="line"/>
      <point x="611" y="596" type="line"/>
    </contour>
    <contour>
      <point x="413" y="874" type="qcurve"/>
      <point x="440" y="840"/>
      <point x="462" y="814" type="qcurve"/>
      <point x="481" y="791"/>
      <point x="515" y="751"/>
      <point x="518" y="746" type="qcurve"/>
      <point x="488" y="746" type="line"/>
      <point x="407" y="828" type="line"/>
      <point x="306" y="746" type="line"/>
      <point x="277" y="746" type="line"/>
      <point x="281" y="750"/>
      <point x="324" y="791"/>
      <point x="349" y="814" type="qcurve"/>
      <point x="378" y="841"/>
    </contour>
  </outline>
</glyph>
<glyph name="Icircumflex" format="1">
  <advance width="321"/>
  <unicode hex="00CE"/>
  <outline>
    <contour>
      <point x="317" y="707" type="line"/>
      <point x="312" y="670" type="line"/>
      <point x="230" y="670" type="line"/>
      <point x="152" y="37" type="line"/>
      <point x="235" y="37" type="line"/>
      <point x="230" y="0" type="line"/>
      <point x="29" y="0" type="line"/>
      <point x="34" y="37" type="line"/>
      <point x="111" y="37" type="line"/>
      <point x="189" y="670" type="line"/>
      <point x="111" y="670" type="line"/>
      <point x="116" y="707" type="line"/>
    </contour>
    <contour>
      <point x="235" y="874" type="qcurve"/>
      <point x="262" y="840"/>
      <point x="284" y="814" type="qcurve"/>
      <point x="303" y="791"/>
      <point x="337" y="751"/>
      <point x="340" y="746" type="qcurve"/>
      <point x="310" y="746" type="line"/>
      <point x="229" y="828" type="line"/>
      <point x="128" y="746" type="line"/>
      <point x="99" y="746" type="line"/>
      <point x="103" y="750"/>
      <point x="146" y="791"/>
      <point x="171" y="814" type="qcurve"/>
      <point x="200" y="841"/>
    </contour>
  </outline>
</glyph>
<glyph name="Ograve" format="1">
  <advance width="834"/>
  <unicode hex="00D2"/>
  <outline>
    <contour>
      <point x="65" y="353" type="qcurve"/>
      <point x="74" y="428"/>
      <point x="147" y="559"/>
      <point x="257" y="658"/>
      <point x="395" y="715"/>
      <point x="470" y="715" type="qcurve"/>
      <point x="539" y="715"/>
      <point x="657" y="664"/>
      <point x="743" y="576"/>
      <point x="791" y="457"/>
      <point x="791" y="389" type="qcurve"/>
      <point x="791" y="308"/>
      <point x="723" y="164"/>
      <point x="610" y="55"/>
      <point x="462" y="-8"/>
      <point x="381" y="-8" type="qcurve"/>
      <point x="306" y="-8"/>
      <point x="182" y="49"/>
      <point x="97" y="147"/>
      <point x="56" y="278"/>
    </contour>
    <contour>
      <point x="106" y="352" type="qcurve"/>
      <point x="98" y="286"/>
      <point x="134" y="169"/>
      <point x="210" y="82"/>
      <point x="319" y="31"/>
      <point x="385" y="31" type="qcurve"/>
      <point x="456" y="31"/>
      <point x="588" y="87"/>
      <point x="689" y="184"/>
      <point x="749" y="313"/>
      <point x="749" y="385" type="qcurve"/>
      <point x="749" y="445"/>
      <point x="706" y="551"/>
      <point x="630" y="630"/>
      <point x="526" y="675"/>
      <point x="465" y="675" type="qcurve"/>
      <point x="399" y="675"/>
      <point x="276" y="624"/>
      <point x="179" y="536"/>
      <point x="114" y="419"/>
    </contour>
    <contour>
      <point x="469" y="887" type="line"/>
      <point x="544" y="754" type="line"/>
      <point x="514" y="754" type="line"/>
      <point x="493" y="787"/>
      <point x="452" y="854"/>
      <point x="432" y="887" type="qcurve"/>
    </contour>
  </outline>
</glyph>
<glyph name="Thorn" format="1">
  <advance width="549"/>
  <unicode hex="00DE"/>
  <outline>
    <contour>
      <point x="152" y="37" type="line"/>
      <point x="147" y="0" type="line"/>
      <point x="29" y="0" type="line"/>
      <point x="34" y="37" type="line"/>
      <point x="110" y="37" type="line"/>
      <point x="188" y="670" type="line"/>
      <point x="111" y="670" type="line"/>
      <point x="116" y="707" type="line"/>
      <point x="234" y="707" type="line"/>
      <point x="229" y="670" type="line"/>
      <point x="215" y="551" type="line"/>
      <point x="330" y="551" type="line"/>
      <point x="364" y="551"/>
      <point x="434" y="531"/>
      <point x="490" y="489"/>
      <point x="525" y="423"/>
      <point x="525" y="377" type="qcurve"/>
      <point x="525" y="336"/>
      <point x="495" y="254"/>
      <point x="434" y="188"/>
      <point x="339" y="147"/>
      <point x="274" y="147" type="qcurve"/>
      <point x="165" y="147" type="line"/>
      <point x="151" y="37" type="line"/>
    </contour>
    <contour>
      <point x="170" y="187" type="line"/>
      <point x="281" y="187" type="line"/>
      <point x="339" y="187"/>
      <point x="417" y="226"/>
      <point x="463" y="283"/>
      <point x="483" y="347"/>
      <point x="483" y="372" type="qcurve"/>
      <point x="483" y="402"/>
      <point x="460" y="453"/>
      <point x="418" y="491"/>
      <point x="358" y="512"/>
      <point x="321" y="512" type="qcurve"/>
      <point x="210" y="512" type="line"/>
    </contour>
  </outline>
</glyph>
<glyph name="ae" format="1">
  <advance width="639"/>
  <unicode hex="00E6"/>
  <outline>
    <contour>
      <point x="555" y="47" type="line"/>
      <point x="525" y="22"/>
      <point x="448" y="-7"/>
      <point x="407" y="-7" type="qcurve"/>
      <point x="370" y="-7"/>
      <point x="308" y="17"/>
      <point x="285" y="39" type="qcurve"/>
      <point x="261" y="16"/>
      <point x="188" y="-7"/>
      <point x="145" y="-7" type="qcurve"/>
      <point x="78" y="-7"/>
      <point x="16" y="47"/>
      <point x="16" y="89" type="qcurve"/>
      <point x="16" y="120"/>
      <point x="43" y="165"/>
      <point x="83" y="193"/>
      <point x="132" y="206"/>
      <point x="155" y="206" type="qcurve"/>
      <point x="230" y="206" type="line"/>
      <point x="236" y="242"/>
      <point x="271" y="305"/>
      <point x="297" y="331" type="qcurve"/>
      <point x="284" y="345"/>
      <point x="238" y="361"/>
      <point x="201" y="361" type="qcurve"/>
      <point x="155" y="361"/>
      <point x="98" y="341"/>
      <point x="75" y="327" type="qcurve"/>
      <point x="63" y="356" type="line"/>
      <point x="89" y="373"/>
      <point x="165" y="396"/>
      <point x="213" y="396" type="qcurve"/>
      <point x="256" y="396"/>
      <point x="312" y="375"/>
      <point x="327" y="356" type="qcurve"/>
      <point x="355" y="376"/>
      <point x="420" y="397"/>
      <point x="455" y="397" type="qcurve"/>
      <point x="520" y="397"/>
      <point x="602" y="322"/>
      <point x="617" y="264" type="qcurve"/>
      <point x="268" y="130" type="line"/>
      <point x="282" y="84"/>
      <point x="357" y="27"/>
      <point x="410" y="27" type="qcurve"/>
      <point x="444" y="27"/>
      <point x="507" y="51"/>
      <point x="532" y="72" type="qcurve"/>
    </contour>
    <contour>
      <point x="574" y="274" type="qcurve"/>
      <point x="560" y="314"/>
      <point x="497" y="362"/>
      <point x="451" y="362" type="qcurve"/>
      <point x="414" y="362"/>
      <point x="346" y="333"/>
      <point x="294" y="282"/>
      <point x="263" y="215"/>
      <point x="262" y="178" type="qcurve"/>
      <point x="262" y="172"/>
      <point x="263" y="159"/>
      <point x="264" y="154" type="qcurve"/>
      <point x="300" y="168"/>
      <point x="380" y="199"/>
      <point x="461" y="230"/>
      <point x="539" y="260"/>
    </contour>
    <contour>
      <point x="51" y="96" type="qcurve"/>
      <point x="51" y="61"/>
      <point x="110" y="27"/>
      <point x="155" y="27" type="qcurve"/>
      <point x="186" y="27"/>
      <point x="243" y="41"/>
      <point x="266" y="59" type="qcurve"/>
      <point x="248" y="82"/>
      <point x="228" y="141"/>
      <point x="228" y="174" type="qcurve"/>
      <point x="228" y="179" type="line"/>
      <point x="169" y="179" type="line"/>
      <point x="134" y="179"/>
      <point x="89" y="163"/>
      <point x="62" y="139"/>
      <point x="51" y="109"/>
    </contour>
  </outline>
</glyph>
<glyph name="ccedilla" format="1">
  <advance width="397"/>
  <unicode hex="00E7"/>
  <outline>
    <contour>
      <point x="323" y="63" type="qcurve"/>
      <point x="328" y="57"/>
      <point x="337" y="44"/>
      <point x="342" y="37" type="qcurve"/>
      <point x="313" y="17"/>
      <point x="246" y="-7"/>
      <point x="209" y="-7" type="qcurve"/>
      <point x="207" y="-20"/>
      <point x="212" y="-37"/>
      <point x="223" y="-49"/>
      <point x="237" y="-57"/>
      <point x="243" y="-61" type="qcurve"/>
      <point x="261" y="-75"/>
      <point x="276" y="-110"/>
      <point x="276" y="-124" type="qcurve"/>
      <point x="276" y="-175"/>
      <point x="215" y="-233"/>
      <point x="172" y="-233" type="qcurve"/>
      <point x="143" y="-233"/>
      <point x="98" y="-201"/>
      <point x="91" y="-169" type="qcurve"/>
      <point x="118" y="-158" type="line"/>
      <point x="120" y="-178"/>
      <point x="150" y="-203"/>
      <point x="173" y="-203" type="qcurve"/>
      <point x="205" y="-203"/>
      <point x="246" y="-160"/>
      <point x="246" y="-128" type="qcurve"/>
      <point x="246" y="-106"/>
      <point x="224" y="-81"/>
      <point x="198" y="-61"/>
      <point x="178" y="-38"/>
      <point x="181" y="-18" type="qcurve"/>
      <point x="182" y="-5" type="line"/>
      <point x="148" y="-1"/>
      <point x="92" y="30"/>
      <point x="52" y="78"/>
      <point x="30" y="139"/>
      <point x="30" y="174" type="qcurve"/>
      <point x="30" y="219"/>
      <point x="67" y="300"/>
      <point x="130" y="361"/>
      <point x="213" y="396"/>
      <point x="258" y="396" type="qcurve"/>
      <point x="296" y="396"/>
      <point x="358" y="372"/>
      <point x="382" y="352" type="qcurve"/>
      <point x="376" y="345"/>
      <point x="362" y="333"/>
      <point x="356" y="325" type="qcurve"/>
      <point x="336" y="342"/>
      <point x="285" y="362"/>
      <point x="255" y="362" type="qcurve"/>
      <point x="217" y="362"/>
      <point x="148" y="333"/>
      <point x="96" y="282"/>
      <point x="65" y="215"/>
      <point x="65" y="177" type="qcurve"/>
      <point x="65" y="145"/>
      <point x="87" y="91"/>
      <point x="126" y="50"/>
      <point x="180" y="27"/>
      <point x="213" y="27" type="qcurve"/>
      <point x="244" y="27"/>
      <point x="300" y="46"/>
    </contour>
  </outline>
</glyph>
<glyph name="iacute" format="1">
  <advance width="233"/>
  <unicode hex="00ED"/>
  <outline>
    <contour>
      <point x="180" y="0" type="line"/>
      <point x="-5" y="0" type="line"/>
      <point x="-1" y="31" type="line"/>
      <point x="73" y="31" type="line"/>
      <point x="113" y="356" type="line"/>
      <point x="39" y="356" type="line"/>
      <point x="43" y="387" type="line"/>
      <point x="151" y="387" type="line"/>
      <point x="108" y="31" type="line"/>
      <point x="184" y="31" type="line"/>
    </contour>
    <contour>
      <point x="97" y="481" type="line"/>
      <point x="203" y="614" type="line"/>
      <point x="241" y="614" type="line"/>
      <point x="126" y="481" type="line"/>
    </contour>
  </outline>
</glyph>
<glyph name="udieresis" format="1">
  <advance width="505"/>
  <unicode hex="00FC"/>
  <outline>
    <contour>
      <point x="384" y="336" type="line"/>
      <point x="387" y="356" type="line"/>
      <point x="310" y="356" type="line"/>
      <point x="314" y="387" type="line"/>
      <point x="425" y="387" type="line"/>
      <point x="419" y="335" type="line"/>
      <point x="418" y="335" type="line"/>
      <point x="382" y="31" type="line"/>
      <point x="455" y="31" type="line"/>
      <point x="452" y="0" type="line"/>
      <point x="350" y="0" type="line"/>
      <point x="359" y="101" type="line"/>
      <point x="332" y="52"/>
      <point x="237" y="-8"/>
      <point x="179" y="-8" type="qcurve"/>
      <point x="123" y="-8"/>
      <point x="65" y="57"/>
      <point x="70" y="108" type="qcurve"/>
      <point x="101" y="356" type="line"/>
      <point x="27" y="356" type="line"/>
      <point x="31" y="387" type="line"/>
      <point x="139" y="387" type="line"/>
      <point x="132" y="330" type="line"/>
      <point x="105" y="114" type="line"/>
      <point x="103" y="79"/>
      <point x="144" y="29"/>
      <point x="187" y="26" type="qcurve"/>
      <point x="220" y="26"/>
      <point x="280" y="48"/>
      <point x="329" y="86"/>
      <point x="361" y="139"/>
      <point x="365" y="171" type="qcurve"/>
      <point x="385" y="336" type="line"/>
    </contour>
    <contour>
      <point x="333" y="505" type="qcurve"/>
      <point x="333" y="519"/>
      <point x="354" y="539"/>
      <point x="368" y="539" type="qcurve"/>
      <point x="379" y="539"/>
      <point x="394" y="523"/>
      <point x="394" y="511" type="qcurve"/>
      <point x="394" y="497"/>
      <point x="373" y="478"/>
      <point x="360" y="478" type="qcurve"/>
      <point x="349" y="478"/>
      <point x="333" y="494"/>
    </contour>
    <contour>
      <point x="161" y="505" type="qcurve"/>
      <point x="161" y="519"/>
      <point x="182" y="539"/>
      <point x="196" y="539" type="qcurve"/>
      <point x="207" y="539"/>
      <point x="222" y="523"/>
      <point x="222" y="511" type="qcurve"/>
      <point x="222" y="497"/>
      <point x="201" y="478"/>
      <point x="188" y="478" type="qcurve"/>
      <point x="177" y="478"/>
      <point x="161" y="494"/>
    </contour>
  </outline>
</glyph>
<glyph name="thorn" format="1">
  <advance width="527"/>
  <unicode hex="00FE"/>
  <outline>
    <contour>
      <point x="478" y="216" type="qcurve"/>
      <point x="478" y="169"/>
      <point x="441" y="88"/>
      <point x="379" y="28"/>
      <point x="295" y="-7"/>
      <point x="249" y="-7" type="qcurve"/>
      <point x="190" y="-7"/>
      <point x="106" y="54"/>
      <point x="92" y="99" type="qcurve"/>
      <point x="90" y="86"/>
      <point x="88" y="61"/>
      <point x="87" y="48" type="qcurve"/>
      <point x="64" y="-135" type="line"/>
      <point x="65" y="-135" type="line"/>
      <point x="62" y="-156" type="line"/>
      <point x="139" y="-156" type="line"/>
      <point x="135" y="-187" type="line"/>
      <point x="-51" y="-187" type="line"/>
      <point x="-47" y="-156" type="line"/>
      <point x="26" y="-156" type="line"/>
      <point x="135" y="727" type="line"/>
      <point x="62" y="727" type="line"/>
      <point x="65" y="758" type="line"/>
      <point x="174" y="758" type="line"/>
      <point x="116" y="288" type="line"/>
      <point x="129" y="310"/>
      <point x="168" y="350"/>
      <point x="215" y="379"/>
      <point x="270" y="396"/>
      <point x="300" y="396" type="qcurve"/>
      <point x="339" y="396"/>
      <point x="405" y="369"/>
      <point x="452" y="321"/>
      <point x="478" y="255"/>
    </contour>
    <contour>
      <point x="441" y="213" type="qcurve"/>
      <point x="441" y="244"/>
      <point x="420" y="298"/>
      <point x="381" y="339"/>
      <point x="327" y="362"/>
      <point x="294" y="362" type="qcurve"/>
      <point x="256" y="362"/>
      <point x="187" y="333"/>
      <point x="135" y="282"/>
      <point x="104" y="215"/>
      <point x="104" y="177" type="qcurve"/>
      <point x="104" y="145"/>
      <point x="126" y="91"/>
      <point x="166" y="50"/>
      <point x="220" y="27"/>
      <point x="253" y="27" type="qcurve"/>
      <point x="291" y="27"/>
      <point x="360" y="56"/>
      <point x="411" y="107"/>
      <point x="441" y="175"/>
    </contour>
  </outline>
</glyph>
<glyph name="Abreve" format="1">
  <advance width="726"/>
  <unicode hex="0102"/>
  <outline>
    <contour>
      <point x="-26" y="37" type="line"/>
      <point x="-31" y="0" type="line"/>
      <point x="170" y="0" type="line"/>
      <point x="175" y="37" type="line"/>
      <point x="91" y="37" type="line"/>
      <point x="222" y="287" type="line"/>
      <point x="508" y="287" type="line"/>
      <point x="577" y="37" type="line"/>
      <point x="497" y="37" type="line"/>
      <point x="492" y="0" type="line"/>
      <point x="693" y="0" type="line"/>
      <point x="698" y="37" type="line"/>
      <point x="618" y="37" type="line"/>
      <point x="421" y="740" type="line"/>
      <point x="49" y="37" type="line"/>
    </contour>
    <contour>
      <point x="397" y="623" type="line"/>
      <point x="399" y="629"/>
      <point x="402" y="634" type="qcurve"/>
      <point x="404" y="639"/>
      <point x="408" y="648"/>
      <point x="410" y="652" type="qcurve"/>
      <point x="410" y="648"/>
      <point x="412" y="639"/>
      <point x="413" y="634" type="qcurve"/>
      <point x="414" y="629"/>
      <point x="416" y="623" type="qcurve"/>
      <point x="498" y="323" type="line"/>
      <point x="240" y="323" type="line"/>
    </contour>
    <contour>
      <point x="422" y="744" type="qcurve"/>
      <point x="389" y="744"/>
      <point x="333" y="768"/>
      <point x="294" y="810"/>
      <point x="275" y="868"/>
      <point x="278" y="901" type="qcurve"/>
      <point x="303" y="901" type="line"/>
      <point x="300" y="874"/>
      <point x="316" y="826"/>
      <point x="348" y="789"/>
      <point x="395" y="768"/>
      <point x="424" y="768" type="qcurve"/>
      <point x="454" y="768"/>
      <point x="506" y="789"/>
      <point x="547" y="826"/>
      <point x="573" y="874"/>
      <point x="577" y="901" type="qcurve"/>
      <point x="602" y="901" type="line"/>
      <point x="598" y="868"/>
      <point x="565" y="810"/>
      <point x="516" y="768"/>
      <point x="455" y="744"/>
    </contour>
  </outline>
</glyph>
<glyph name="Ccircumflex" format="1">
  <advance width="655"/>
  <unicode hex="0108"/>
  <outline>
    <contour>
      <point x="603" y="572" type="line"/>
      <point x="611" y="643" type="line"/>
      <point x="581" y="660"/>
      <point x="508" y="676"/>
      <point x="470" y="676" type="qcurve"/>
      <point x="398" y="676"/>
      <point x="265" y="619"/>
      <point x="165" y="521"/>
      <point x="105" y="390"/>
      <point x="105" y="317" type="qcurve"/>
      <point x="105" y="260"/>
      <point x="143" y="157"/>
      <point x="215" y="80"/>
      <point x="319" y="34"/>
      <point x="384" y="34" type="qcurve"/>
      <point x="439" y="34"/>
      <point x="535" y="63"/>
      <point x="567" y="82" type="qcurve"/>
      <point x="583" y="45" type="line"/>
      <point x="544" y="23"/>
      <point x="441" y="-8"/>
      <point x="380" y="-8" type="qcurve"/>
      <point x="306" y="-8"/>
      <point x="188" y="42"/>
      <point x="106" y="129"/>
      <point x="63" y="245"/>
      <point x="63" y="310" type="qcurve"/>
      <point x="63" y="395"/>
      <point x="131" y="542"/>
      <point x="244" y="652"/>
      <point x="392" y="715"/>
      <point x="472" y="715" type="qcurve"/>
      <point x="526" y="715"/>
      <point x="621" y="687"/>
      <point x="653" y="665" type="qcurve"/>
      <point x="642" y="572" type="line"/>
    </contour>
    <contour>
      <point x="492" y="874" type="qcurve"/>
      <point x="519" y="840"/>
      <point x="541" y="814" type="qcurve"/>
      <point x="560" y="791"/>
      <point x="594" y="751"/>
      <point x="597" y="746" type="qcurve"/>
      <point x="567" y="746" type="line"/>
      <point x="486" y="828" type="line"/>
      <point x="385" y="746" type="line"/>
      <point x="356" y="746" type="line"/>
      <point x="360" y="750"/>
      <point x="403" y="791"/>
      <point x="428" y="814" type="qcurve"/>
      <point x="457" y="841"/>
    </contour>
  </outline>
</glyph>
<glyph name="ccircumflex" format="1">
  <advance width="404"/>
  <unicode hex="0109"/>
  <outline>
    <contour>
      <point x="382" y="352" type="qcurve"/>
      <point x="374" y="290" type="line"/>
      <point x="344" y="290" type="line"/>
      <point x="348" y="332" type="line"/>
      <point x="309" y="362"/>
      <point x="255" y="362" type="qcurve"/>
      <point x="217" y="362"/>
      <point x="148" y="333"/>
      <point x="96" y="282"/>
      <point x="65" y="215"/>
      <point x="65" y="177" type="qcurve"/>
      <point x="65" y="145"/>
      <point x="87" y="91"/>
      <point x="126" y="50"/>
      <point x="180" y="27"/>
      <point x="213" y="27" type="qcurve"/>
      <point x="244" y="27"/>
      <point x="302" y="46"/>
      <point x="325" y="63" type="qcurve"/>
      <point x="330" y="57"/>
      <point x="339" y="44"/>
      <point x="344" y="37" type="qcurve"/>
      <point x="315" y="16"/>
      <point x="247" y="-7"/>
      <point x="209" y="-7" type="qcurve"/>
      <point x="169" y="-7"/>
      <point x="103" y="21"/>
      <point x="56" y="69"/>
      <point x="30" y="135"/>
      <point x="30" y="173" type="qcurve"/>
      <point x="30" y="219"/>
      <point x="68" y="300"/>
      <point x="131" y="361"/>
      <point x="214" y="396"/>
      <point x="259" y="396" type="qcurve"/>
      <point x="295" y="396"/>
      <point x="358" y="373"/>
    </contour>
    <contour>
      <point x="283" y="663" type="line"/>
      <point x="308" y="617"/>
      <point x="356" y="526"/>
      <point x="382" y="481" type="qcurve"/>
      <point x="352" y="481" type="line"/>
      <point x="335" y="512"/>
      <point x="295" y="582"/>
      <point x="277" y="613" type="qcurve"/>
      <point x="253" y="582"/>
      <point x="195" y="512"/>
      <point x="170" y="481" type="qcurve"/>
      <point x="141" y="481" type="line"/>
    </contour>
  </outline>
</glyph>
<glyph name="dcaron" format="1">
  <advance width="541"/>
  <unicode hex="010F"/>
  <outline>
    <contour>
      <point x="399" y="31" type="line"/>
      <point x="473" y="31" type="line"/>
      <point x="469" y="0" type="line"/>
      <point x="360" y="0" type="line"/>
      <point x="367" y="47" type="line"/>
      <point x="374" y="100" type="line"/>
      <point x="348" y="55"/>
      <point x="250" y="-7"/>
      <point x="188" y="-7" type="qcurve"/>
      <point x="149" y="-7"/>
      <point x="84" y="21"/>
      <point x="37" y="69"/>
      <point x="12" y="134"/>
      <point x="12" y="172" type="qcurve"/>
      <point x="12" y="219"/>
      <point x="49" y="301"/>
      <point x="111" y="361"/>
      <point x="193" y="396"/>
      <point x="238" y="396" type="qcurve"/>
      <point x="301" y="396"/>
      <point x="382" y="333"/>
      <point x="396" y="288" type="qcurve"/>
      <point x="449" y="727" type="line"/>
      <point x="378" y="727" type="line"/>
      <point x="382" y="758" type="line"/>
      <point x="488" y="758" type="line"/>
    </contour>
    <contour>
      <point x="47" y="177" type="qcurve"/>
      <point x="47" y="145"/>
      <point x="69" y="91"/>
      <point x="108" y="50"/>
      <point x="163" y="27"/>
      <point x="195" y="27" type="qcurve"/>
      <point x="233" y="27"/>
      <point x="302" y="56"/>
      <point x="354" y="107"/>
      <point x="385" y="173"/>
      <point x="385" y="211" type="qcurve"/>
      <point x="385" y="243"/>
      <point x="363" y="298"/>
      <point x="323" y="339"/>
      <point x="269" y="362"/>
      <point x="236" y="362" type="qcurve"/>
      <point x="198" y="362"/>
      <point x="129" y="333"/>
      <point x="77" y="282"/>
      <point x="47" y="215"/>
    </contour>
    <contour>
      <point x="580" y="572" type="qcurve"/>
      <point x="576" y="577"/>
      <point x="570" y="587"/>
      <point x="565" y="592" type="qcurve"/>
      <point x="589" y="612"/>
      <point x="615" y="672"/>
      <point x="612" y="707" type="qcurve"/>
      <point x="643" y="714" type="line"/>
      <point x="647" y="673"/>
      <point x="612" y="599"/>
    </contour>
  </outline>
</glyph>
<glyph name="Gbreve" format="1">
  <advance width="687"/>
  <unicode hex="011E"/>
  <outline>
    <contour>
      <point x="609" y="572" type="line"/>
      <point x="617" y="640" type="line"/>
      <point x="585" y="657"/>
      <point x="508" y="676"/>
      <point x="469" y="676" type="qcurve"/>
      <point x="398" y="676"/>
      <point x="267" y="619"/>
      <point x="166" y="520"/>
      <point x="105" y="389"/>
      <point x="105" y="315" type="qcurve"/>
      <point x="105" y="256"/>
      <point x="144" y="152"/>
      <point x="217" y="75"/>
      <point x="322" y="31"/>
      <point x="388" y="31" type="qcurve"/>
      <point x="427" y="31"/>
      <point x="509" y="50"/>
      <point x="547" y="69" type="qcurve"/>
      <point x="572" y="277" type="line"/>
      <point x="409" y="277" type="line"/>
      <point x="414" y="313" type="line"/>
      <point x="616" y="313" type="line"/>
      <point x="582" y="42" type="line"/>
      <point x="540" y="19"/>
      <point x="438" y="-8"/>
      <point x="384" y="-8" type="qcurve"/>
      <point x="309" y="-8"/>
      <point x="189" y="41"/>
      <point x="107" y="126"/>
      <point x="63" y="242"/>
      <point x="63" y="309" type="qcurve"/>
      <point x="63" y="394"/>
      <point x="132" y="542"/>
      <point x="246" y="652"/>
      <point x="394" y="715"/>
      <point x="474" y="715" type="qcurve"/>
      <point x="526" y="715"/>
      <point x="622" y="688"/>
      <point x="659" y="665" type="qcurve"/>
      <point x="648" y="572" type="line"/>
    </contour>
    <contour>
      <point x="470" y="744" type="qcurve"/>
      <point x="437" y="744"/>
      <point x="381" y="768"/>
      <point x="342" y="810"/>
      <point x="323" y="868"/>
      <point x="326" y="901" type="qcurve"/>
      <point x="351" y="901" type="line"/>
      <point x="348" y="874"/>
      <point x="364" y="826"/>
      <point x="396" y="789"/>
      <point x="443" y="768"/>
      <point x="472" y="768" type="qcurve"/>
      <point x="502" y="768"/>
      <point x="554" y="789"/>
      <point x="595" y="826"/>
      <point x="621" y="874"/>
      <point x="625" y="901" type="qcurve"/>
      <point x="650" y="901" type="line"/>
      <point x="646" y="868"/>
      <point x="613" y="810"/>
      <point x="564" y="768"/>
      <point x="503" y="744"/>
    </contour>
  </outline>
</glyph>
<glyph name="Imacron" format="1">
  <advance width="321"/>
  <unicode hex="012A"/>
  <outline>
    <contour>
      <point x="317" y="707" type="line"/>
      <point x="312" y="670" type="line"/>
      <point x="230" y="670" type="line"/>
      <point x="152" y="37" type="line"/>
      <point x="235" y="37" type="line"/>
      <point x="230" y="0" type="line"/>
      <point x="29" y="0" type="line"/>
      <point x="34" y="37" type="line"/>
      <point x="111" y="37" type="line"/>
      <point x="189" y="670" type="line"/>
      <point x="111" y="670" type="line"/>
      <point x="116" y="707" type="line"/>
    </contour>
    <contour>
      <point x="107" y="761" type="line"/>
      <point x="111" y="788" type="line"/>
      <point x="342" y="788" type="line"/>
      <point x="338" y="761" type="line"/>
    </contour>
  </outline>
</glyph>
<glyph name="imacron" format="1">
  <advance width="233"/>
  <unicode hex="012B"/>
  <outline>
    <contour>
      <point x="180" y="0" type="line"/>
      <point x="-5" y="0" type="line"/>
      <point x="-1" y="31" type="line"/>
      <point x="73" y="31" type="line"/>
      <point x="113" y="356" type="line"/>
      <point x="39" y="356" type="line"/>
      <point x="43" y="387" type="line"/>
      <point x="151" y="387" type="line"/>
      <point x="147" y="356" type="line"/>
      <point x="109" y="40" type="line"/>
      <point x="108" y="31" type="line"/>
      <point x="184" y="31" type="line"/>
    </contour>
    <contour>
      <point x="31" y="489" type="line"/>
      <point x="35" y="516" type="line"/>
      <point x="266" y="516" type="line"/>
      <point x="262" y="489" type="line"/>
    </contour>
  </outline>
</glyph>
<glyph name="Iogonek" format="1">
  <advance width="320"/>
  <unicode hex="012E"/>
  <outline>
    <contour>
      <point x="316" y="707" type="line"/>
      <point x="311" y="670" type="line"/>
      <point x="229" y="670" type="line"/>
      <point x="151" y="37" type="line"/>
      <point x="234" y="37" type="line"/>
      <point x="229" y="0" type="line"/>
      <point x="28" y="0" type="line"/>
      <point x="33" y="37" type="line"/>
      <point x="110" y="37" type="line"/>
      <point x="188" y="670" type="line"/>
      <point x="110" y="670" type="line"/>
      <point x="115" y="707" type="line"/>
    </contour>
    <contour>
      <point x="214" y="0" type="line"/>
      <point x="188" y="0" type="line"/>
      <point x="187" y="-6" type="line"/>
      <point x="182" y="-33"/>
      <point x="152" y="-53"/>
      <point x="138" y="-61" type="qcurve"/>
      <point x="111" y="-79"/>
      <point x="88" y="-124"/>
      <point x="88" y="-147" type="qcurve"/>
      <point x="88" y="-189"/>
      <point x="132" y="-233"/>
      <point x="167" y="-233" type="qcurve"/>
      <point x="196" y="-233"/>
      <point x="250" y="-201"/>
      <point x="265" y="-169" type="qcurve"/>
      <point x="251" y="-164"/>
      <point x="241" y="-158" type="qcurve"/>
      <point x="233" y="-178"/>
      <point x="197" y="-203"/>
      <point x="174" y="-203" type="qcurve"/>
      <point x="148" y="-203"/>
      <point x="117" y="-170"/>
      <point x="117" y="-144" type="qcurve"/>
      <point x="117" y="-115"/>
      <point x="144" y="-85"/>
      <point x="178" y="-63"/>
      <point x="208" y="-42"/>
      <point x="211" y="-22" type="qcurve"/>
    </contour>
  </outline>
</glyph>
<glyph name="Idotaccent" format="1">
  <advance width="321"/>
  <unicode hex="0130"/>
  <outline>
    <contour>
      <point x="317" y="707" type="line"/>
      <point x="312" y="670" type="line"/>
      <point x="230" y="670" type="line"/>
      <point x="152" y="37" type="line"/>
      <point x="235" y="37" type="line"/>
      <point x="230" y="0" type="line"/>
      <point x="29" y="0" type="line"/>
      <point x="34" y="37" type="line"/>
      <point x="111" y="37" type="line"/>
      <point x="189" y="670" type="line"/>
      <point x="111" y="670" type="line"/>
      <point x="116" y="707" type="line"/>
    </contour>
    <contour>
      <point x="192" y="776" type="qcurve"/>
      <point x="192" y="790"/>
      <point x="214" y="810"/>
      <point x="227" y="810" type="qcurve"/>
      <point x="238" y="810"/>
      <point x="253" y="794"/>
      <point x="253" y="782" type="qcurve"/>
      <point x="253" y="768"/>
      <point x="232" y="749"/>
      <point x="219" y="749" type="qcurve"/>
      <point x="208" y="749"/>
      <point x="192" y="765"/>
    </contour>
  </outline>
</glyph>
<glyph name="lacute" format="1">
  <advance width="225"/>
  <unicode hex="013A"/>
  <outline>
    <contour>
      <point x="102" y="52" type="line"/>
      <point x="100" y="38" type="line"/>
      <point x="100" y="31" type="line"/>
      <point x="176" y="31" type="line"/>
      <point x="172" y="0" type="line"/>
      <point x="-13" y="0" type="line"/>
      <point x="-9" y="31" type="line"/>
      <point x="65" y="31" type="line"/>
      <point x="150" y="727" type="line"/>
      <point x="76" y="727" type="line"/>
      <point x="80" y="758" type="line"/>
      <point x="189" y="758" type="line"/>
    </contour>
    <contour>
      <point x="137" y="777" type="line"/>
      <point x="243" y="910" type="line"/>
      <point x="281" y="910" type="line"/>
      <point x="166" y="777" type="line"/>
    </contour>
  </outline>
</glyph>
<glyph name="uni013B" format="1">
  <advance width="600"/>
  <unicode hex="013B"/>
  <outline>
    <contour>
      <point x="317" y="707" type="line"/>
      <point x="312" y="670" type="line"/>
      <point x="229" y="670" type="line"/>
      <point x="152" y="40" type="line"/>
      <point x="513" y="40" type="line"/>
      <point x="522" y="114" type="line"/>
      <point x="561" y="114" type="line"/>
      <point x="549" y="16" type="line"/>
      <point x="541" y="16" type="line"/>
      <point x="539" y="0" type="line"/>
      <point x="29" y="0" type="line"/>
      <point x="34" y="37" type="line"/>
      <point x="110" y="37" type="line"/>
      <point x="188" y="670" type="line"/>
      <point x="111" y="670" type="line"/>
      <point x="116" y="707" type="line"/>
    </contour>
    <contour>
      <point x="316" y="-22" type="line"/>
      <point x="302" y="-48"/>
      <point x="284" y="-80"/>
      <point x="268" y="-109"/>
      <point x="250" y="-142"/>
      <point x="236" y="-168" type="qcurve"/>
      <point x="204" y="-168" type="line"/>
      <point x="217" y="-142"/>
      <point x="233" y="-109"/>
      <point x="247" y="-80"/>
      <point x="263" y="-48"/>
      <point x="276" y="-22" type="qcurve"/>
    </contour>
  </outline>
</glyph>
<glyph name="uni013C" format="1">
  <advance width="225"/>
  <unicode hex="013C"/>
  <outline>
    <contour>
      <point x="172" y="0" type="line"/>
      <point x="-13" y="0" type="line"/>
      <point x="-9" y="31" type="line"/>
      <point x="65" y="31" type="line"/>
      <point x="150" y="727" type="line"/>
      <point x="76" y="727" type="line"/>
      <point x="80" y="758" type="line"/>
      <point x="189" y="758" type="line"/>
      <point x="100" y="31" type="line"/>
      <point x="176" y="31" type="line"/>
    </contour>
    <contour>
      <point x="85" y="-22" type="line"/>
      <point x="71" y="-48"/>
      <point x="53" y="-80"/>
      <point x="37" y="-109"/>
      <point x="19" y="-142"/>
      <point x="5" y="-168" type="qcurve"/>
      <point x="-27" y="-168" type="line"/>
      <point x="-14" y="-142"/>
      <point x="2" y="-109"/>
      <point x="16" y="-80"/>
      <point x="32" y="-48"/>
      <point x="45" y="-22" type="qcurve"/>
    </contour>
  </outline>
</glyph>
<glyph name="Ncaron" format="1">
  <advance width="858"/>
  <unicode hex="0147"/>
  <outline>
    <contour>
      <point x="234" y="37" type="line"/>
      <point x="229" y="0" type="line"/>
      <point x="28" y="0" type="line"/>
      <point x="33" y="37" type="line"/>
      <point x="110" y="37" type="line"/>
      <point x="187" y="670" type="line"/>
      <point x="109" y="670" type="line"/>
      <point x="114" y="707" type="line"/>
      <point x="220" y="707" type="line"/>
      <point x="269" y="634"/>
      <point x="380" y="476"/>
      <point x="494" y="317"/>
      <point x="603" y="161"/>
      <point x="649" y="91" type="qcurve"/>
      <point x="665" y="65" type="line"/>
      <point x="666" y="73"/>
      <point x="666" y="89"/>
      <point x="666" y="97" type="qcurve"/>
      <point x="736" y="671" type="line"/>
      <point x="652" y="671" type="line"/>
      <point x="657" y="708" type="line"/>
      <point x="858" y="708" type="line"/>
      <point x="853" y="671" type="line"/>
      <point x="777" y="671" type="line"/>
      <point x="691" y="-32" type="line"/>
      <point x="659" y="15"/>
      <point x="583" y="122"/>
      <point x="502" y="236"/>
      <point x="419" y="352"/>
      <point x="340" y="465"/>
      <point x="268" y="571"/>
      <point x="239" y="617" type="qcurve"/>
      <point x="236" y="622"/>
      <point x="226" y="636"/>
      <point x="222" y="643" type="qcurve"/>
      <point x="222" y="611" type="line"/>
      <point x="151" y="37" type="line"/>
    </contour>
    <contour>
      <point x="468" y="733" type="qcurve"/>
      <point x="440" y="765"/>
      <point x="418" y="792" type="qcurve"/>
      <point x="399" y="815"/>
      <point x="366" y="856"/>
      <point x="363" y="861" type="qcurve"/>
      <point x="393" y="861" type="line"/>
      <point x="473" y="778" type="line"/>
      <point x="575" y="861" type="line"/>
      <point x="604" y="861" type="line"/>
      <point x="600" y="856"/>
      <point x="557" y="815"/>
      <point x="532" y="792" type="qcurve"/>
      <point x="503" y="765"/>
    </contour>
  </outline>
</glyph>
<glyph name="oe" format="1">
  <advance width="669"/>
  <unicode hex="0153"/>
  <outline>
    <contour>
      <point x="585" y="47" type="line"/>
      <point x="555" y="22"/>
      <point x="479" y="-7"/>
      <point x="438" y="-7" type="qcurve"/>
      <point x="406" y="-7"/>
      <point x="351" y="11"/>
      <point x="329" y="28" type="qcurve"/>
      <point x="274" y="-7"/>
      <point x="209" y="-7" type="qcurve"/>
      <point x="170" y="-7"/>
      <point x="105" y="20"/>
      <point x="57" y="68"/>
      <point x="30" y="134"/>
      <point x="30" y="173" type="qcurve"/>
      <point x="30" y="219"/>
      <point x="68" y="300"/>
      <point x="131" y="361"/>
      <point x="214" y="397"/>
      <point x="259" y="397" type="qcurve"/>
      <point x="291" y="397"/>
      <point x="346" y="379"/>
      <point x="368" y="362" type="qcurve"/>
      <point x="394" y="379"/>
      <point x="454" y="397"/>
      <point x="486" y="397" type="qcurve"/>
      <point x="551" y="397"/>
      <point x="632" y="322"/>
      <point x="647" y="264" type="qcurve"/>
      <point x="609" y="250"/>
      <point x="521" y="216"/>
      <point x="429" y="180"/>
      <point x="338" y="145"/>
      <point x="298" y="130" type="qcurve"/>
      <point x="312" y="84"/>
      <point x="387" y="27"/>
      <point x="441" y="27" type="qcurve"/>
      <point x="474" y="27"/>
      <point x="538" y="51"/>
      <point x="562" y="72" type="qcurve"/>
    </contour>
    <contour>
      <point x="254" y="362" type="qcurve"/>
      <point x="216" y="362"/>
      <point x="148" y="333"/>
      <point x="96" y="282"/>
      <point x="65" y="215"/>
      <point x="65" y="177" type="qcurve"/>
      <point x="65" y="145"/>
      <point x="87" y="91"/>
      <point x="126" y="50"/>
      <point x="180" y="27"/>
      <point x="212" y="27" type="qcurve"/>
      <point x="236" y="27"/>
      <point x="283" y="40"/>
      <point x="303" y="51" type="qcurve"/>
      <point x="282" y="75"/>
      <point x="258" y="138"/>
      <point x="258" y="174" type="qcurve"/>
      <point x="258" y="222"/>
      <point x="301" y="308"/>
      <point x="336" y="339" type="qcurve"/>
      <point x="301" y="362"/>
    </contour>
    <contour>
      <point x="604" y="274" type="qcurve"/>
      <point x="590" y="314"/>
      <point x="528" y="362"/>
      <point x="482" y="362" type="qcurve"/>
      <point x="445" y="362"/>
      <point x="377" y="333"/>
      <point x="325" y="282"/>
      <point x="294" y="215"/>
      <point x="293" y="178" type="qcurve"/>
      <point x="293" y="172"/>
      <point x="293" y="159"/>
      <point x="295" y="154" type="qcurve"/>
      <point x="330" y="168"/>
      <point x="410" y="199"/>
      <point x="491" y="230"/>
      <point x="569" y="260"/>
    </contour>
  </outline>
</glyph>
<glyph name="racute" format="1">
  <advance width="313"/>
  <unicode hex="0155"/>
  <outline>
    <contour>
      <point x="305" y="354" type="line"/>
      <point x="273" y="353"/>
      <point x="214" y="333"/>
      <point x="166" y="296"/>
      <point x="134" y="245"/>
      <point x="130" y="214" type="qcurve"/>
      <point x="108" y="31" type="line"/>
      <point x="192" y="31" type="line"/>
      <point x="188" y="0" type="line"/>
      <point x="-5" y="0" type="line"/>
      <point x="-1" y="31" type="line"/>
      <point x="73" y="31" type="line"/>
      <point x="113" y="356" type="line"/>
      <point x="39" y="356" type="line"/>
      <point x="43" y="387" type="line"/>
      <point x="145" y="387" type="line"/>
      <point x="145" y="383"/>
      <point x="142" y="353"/>
      <point x="139" y="319"/>
      <point x="136" y="290"/>
      <point x="136" y="287" type="qcurve"/>
      <point x="165" y="337"/>
      <point x="264" y="394"/>
      <point x="315" y="395" type="qcurve"/>
    </contour>
    <contour>
      <point x="156" y="481" type="line"/>
      <point x="262" y="614" type="line"/>
      <point x="300" y="614" type="line"/>
      <point x="185" y="481" type="line"/>
    </contour>
  </outline>
</glyph>
<glyph name="Rcaron" format="1">
  <advance width="633"/>
  <unicode hex="0158"/>
  <outline>
    <contour>
      <point x="610" y="37" type="line"/>
      <point x="605" y="0" type="line"/>
      <point x="503" y="0" type="line"/>
      <point x="499" y="6"/>
      <point x="479" y="47"/>
      <point x="451" y="105"/>
      <point x="419" y="172"/>
      <point x="388" y="237"/>
      <point x="362" y="292"/>
      <point x="354" y="308" type="qcurve"/>
      <point x="340" y="306"/>
      <point x="310" y="303"/>
      <point x="294" y="303" type="qcurve"/>
      <point x="185" y="303" type="line"/>
      <point x="152" y="37" type="line"/>
      <point x="234" y="37" type="line"/>
      <point x="229" y="0" type="line"/>
      <point x="28" y="0" type="line"/>
      <point x="33" y="37" type="line"/>
      <point x="111" y="37" type="line"/>
      <point x="188" y="670" type="line"/>
      <point x="110" y="670" type="line"/>
      <point x="115" y="707" type="line"/>
      <point x="350" y="707" type="line"/>
      <point x="384" y="707"/>
      <point x="453" y="687"/>
      <point x="509" y="645"/>
      <point x="544" y="579"/>
      <point x="544" y="533" type="qcurve"/>
      <point x="544" y="501"/>
      <point x="527" y="437"/>
      <point x="491" y="380"/>
      <point x="436" y="334"/>
      <point x="398" y="320" type="qcurve"/>
      <point x="534" y="37" type="line"/>
    </contour>
    <contour>
      <point x="190" y="343" type="line"/>
      <point x="300" y="343" type="line"/>
      <point x="358" y="343"/>
      <point x="436" y="383"/>
      <point x="483" y="441"/>
      <point x="503" y="505"/>
      <point x="503" y="529" type="qcurve"/>
      <point x="503" y="558"/>
      <point x="480" y="609"/>
      <point x="438" y="646"/>
      <point x="378" y="668"/>
      <point x="341" y="668" type="qcurve"/>
      <point x="230" y="668" type="line"/>
    </contour>
    <contour>
      <point x="362" y="746" type="qcurve"/>
      <point x="334" y="778"/>
      <point x="312" y="805" type="qcurve"/>
      <point x="293" y="828"/>
      <point x="260" y="869"/>
      <point x="257" y="874" type="qcurve"/>
      <point x="287" y="874" type="line"/>
      <point x="367" y="791" type="line"/>
      <point x="469" y="874" type="line"/>
      <point x="498" y="874" type="line"/>
      <point x="494" y="869"/>
      <point x="451" y="828"/>
      <point x="426" y="805" type="qcurve"/>
      <point x="397" y="778"/>
    </contour>
  </outline>
</glyph>
<glyph name="sacute" format="1">
  <advance width="333"/>
  <unicode hex="015B"/>
  <outline>
    <contour>
      <point x="53" y="99" type="line"/>
      <point x="47" y="55" type="line"/>
      <point x="61" y="43"/>
      <point x="111" y="26"/>
      <point x="134" y="26" type="qcurve"/>
      <point x="148" y="26"/>
      <point x="183" y="35"/>
      <point x="214" y="54"/>
      <point x="235" y="87"/>
      <point x="235" y="111" type="qcurve"/>
      <point x="235" y="133"/>
      <point x="209" y="161"/>
      <point x="170" y="180"/>
      <point x="124" y="196"/>
      <point x="85" y="218"/>
      <point x="59" y="252"/>
      <point x="59" y="280" type="qcurve"/>
      <point x="59" y="309"/>
      <point x="81" y="352"/>
      <point x="117" y="380"/>
      <point x="161" y="393"/>
      <point x="183" y="393" type="qcurve"/>
      <point x="206" y="393"/>
      <point x="265" y="374"/>
      <point x="284" y="351" type="qcurve"/>
      <point x="277" y="290" type="line"/>
      <point x="247" y="290" type="line"/>
      <point x="251" y="337" type="line"/>
      <point x="238" y="348"/>
      <point x="199" y="359"/>
      <point x="180" y="359" type="qcurve"/>
      <point x="167" y="359"/>
      <point x="137" y="351"/>
      <point x="111" y="334"/>
      <point x="94" y="306"/>
      <point x="94" y="286" type="qcurve"/>
      <point x="94" y="264"/>
      <point x="120" y="237"/>
      <point x="159" y="217"/>
      <point x="205" y="201"/>
      <point x="244" y="178"/>
      <point x="270" y="144"/>
      <point x="270" y="117" type="qcurve"/>
      <point x="270" y="92"/>
      <point x="250" y="47"/>
      <point x="214" y="12"/>
      <point x="162" y="-8"/>
      <point x="129" y="-8" type="qcurve"/>
      <point x="100" y="-8"/>
      <point x="34" y="12"/>
      <point x="15" y="38" type="qcurve"/>
      <point x="23" y="99" type="line"/>
    </contour>
    <contour>
      <point x="163" y="481" type="line"/>
      <point x="269" y="614" type="line"/>
      <point x="307" y="614" type="line"/>
      <point x="192" y="481" type="line"/>
    </contour>
  </outline>
</glyph>
<glyph name="Scedilla" format="1">
  <advance width="555"/>
  <unicode hex="015E"/>
  <outline>
    <contour>
      <point x="31" y="62" type="qcurve"/>
      <point x="43" y="161" type="line"/>
      <point x="82" y="161" type="line"/>
      <point x="73" y="86" type="line"/>
      <point x="104" y="65"/>
      <point x="191" y="32"/>
      <point x="239" y="32" type="qcurve"/>
      <point x="274" y="32"/>
      <point x="349" y="53"/>
      <point x="410" y="97"/>
      <point x="450" y="164"/>
      <point x="450" y="210" type="qcurve"/>
      <point x="450" y="257"/>
      <point x="400" y="315"/>
      <point x="326" y="355"/>
      <point x="239" y="386"/>
      <point x="165" y="424"/>
      <point x="115" y="479"/>
      <point x="115" y="524" type="qcurve"/>
      <point x="115" y="561"/>
      <point x="149" y="629"/>
      <point x="208" y="681"/>
      <point x="290" y="711"/>
      <point x="338" y="711" type="qcurve"/>
      <point x="361" y="711"/>
      <point x="412" y="704"/>
      <point x="460" y="693"/>
      <point x="501" y="679"/>
      <point x="515" y="672" type="qcurve"/>
      <point x="503" y="572" type="line"/>
      <point x="464" y="572" type="line"/>
      <point x="473" y="648" type="line"/>
      <point x="444" y="658"/>
      <point x="374" y="673"/>
      <point x="340" y="673" type="qcurve"/>
      <point x="299" y="673"/>
      <point x="231" y="650"/>
      <point x="183" y="612"/>
      <point x="157" y="560"/>
      <point x="157" y="532" type="qcurve"/>
      <point x="157" y="494"/>
      <point x="206" y="448"/>
      <point x="281" y="414"/>
      <point x="367" y="383"/>
      <point x="442" y="337"/>
      <point x="491" y="268"/>
      <point x="491" y="214" type="qcurve"/>
      <point x="491" y="165"/>
      <point x="456" y="85"/>
      <point x="391" y="27"/>
      <point x="301" y="-6"/>
      <point x="246" y="-8" type="qcurve"/>
      <point x="244" y="-21"/>
      <point x="251" y="-37"/>
      <point x="261" y="-49"/>
      <point x="275" y="-57"/>
      <point x="281" y="-61" type="qcurve"/>
      <point x="299" y="-75"/>
      <point x="314" y="-110"/>
      <point x="314" y="-124" type="qcurve"/>
      <point x="314" y="-175"/>
      <point x="253" y="-233"/>
      <point x="210" y="-233" type="qcurve"/>
      <point x="181" y="-233"/>
      <point x="136" y="-201"/>
      <point x="129" y="-169" type="qcurve"/>
      <point x="155" y="-158" type="line"/>
      <point x="158" y="-178"/>
      <point x="188" y="-203"/>
      <point x="211" y="-203" type="qcurve"/>
      <point x="243" y="-203"/>
      <point x="284" y="-160"/>
      <point x="284" y="-128" type="qcurve"/>
      <point x="284" y="-106"/>
      <point x="262" y="-80"/>
      <point x="236" y="-61"/>
      <point x="216" y="-40"/>
      <point x="218" y="-22" type="qcurve"/>
      <point x="220" y="-7" type="line"/>
      <point x="181" y="-6"/>
      <point x="119" y="11"/>
      <point x="72" y="33"/>
      <point x="40" y="55"/>
    </contour>
  </outline>
</glyph>
<glyph name="tcaron" format="1">
  <advance width="260"/>
  <unicode hex="0165"/>
  <outline>
    <contour>
      <point x="111" y="557" type="line"/>
      <point x="145" y="557" type="line"/>
      <point x="124" y="381" type="line"/>
      <point x="246" y="381" type="line"/>
      <point x="242" y="350" type="line"/>
      <point x="119" y="350" type="line"/>
      <point x="83" y="52" type="line"/>
      <point x="80" y="31" type="line"/>
      <point x="173" y="31" type="line"/>
      <point x="170" y="0" type="line"/>
      <point x="42" y="0" type="line"/>
      <point x="48" y="52" type="line"/>
      <point x="85" y="350" type="line"/>
      <point x="0" y="350" type="line"/>
      <point x="4" y="381" type="line"/>
      <point x="89" y="381" type="line"/>
    </contour>
    <contour>
      <point x="284" y="572" type="qcurve"/>
      <point x="280" y="577"/>
      <point x="274" y="587"/>
      <point x="269" y="592" type="qcurve"/>
      <point x="293" y="612"/>
      <point x="319" y="672"/>
      <point x="316" y="707" type="qcurve"/>
      <point x="347" y="714" type="line"/>
      <point x="351" y="673"/>
      <point x="316" y="599"/>
    </contour>
  </outline>
</glyph>
<glyph name="Tbar" format="1">
  <advance width="543"/>
  <unicode hex="0166"/>
  <outline>
    <contour>
      <point x="494" y="572" type="line"/>
      <point x="505" y="667" type="line"/>
      <point x="341" y="667" type="line"/>
      <point x="322" y="512" type="line"/>
      <point x="415" y="512" type="line"/>
      <point x="411" y="485" type="line"/>
      <point x="318" y="485" type="line"/>
      <point x="259" y="0" type="line"/>
      <point x="218" y="0" type="line"/>
      <point x="277" y="485" type="line"/>
      <point x="180" y="485" type="line"/>
      <point x="184" y="512" type="line"/>
      <point x="281" y="512" type="line"/>
      <point x="300" y="667" type="line"/>
      <point x="134" y="667" type="line"/>
      <point x="123" y="572" type="line"/>
      <point x="84" y="572" type="line"/>
      <point x="99" y="699" type="line"/>
      <point x="100" y="707" type="line"/>
      <point x="549" y="707" type="line"/>
      <point x="545" y="667" type="line"/>
      <point x="544" y="667" type="line"/>
      <point x="533" y="572" type="line"/>
    </contour>
  </outline>
</glyph>
<glyph name="uogonek" format="1">
  <advance width="506"/>
  <unicode hex="0173"/>
  <outline>
    <contour>
      <point x="385" y="336" type="line"/>
      <point x="388" y="356" type="line"/>
      <point x="311" y="356" type="line"/>
      <point x="315" y="387" type="line"/>
      <point x="426" y="387" type="line"/>
      <point x="420" y="335" type="line"/>
      <point x="419" y="335" type="line"/>
      <point x="383" y="31" type="line"/>
      <point x="456" y="31" type="line"/>
      <point x="453" y="0" type="line"/>
      <point x="351" y="0" type="line"/>
      <point x="360" y="101" type="line"/>
      <point x="333" y="52"/>
      <point x="238" y="-8"/>
      <point x="180" y="-8" type="qcurve"/>
      <point x="124" y="-8"/>
      <point x="66" y="57"/>
      <point x="71" y="108" type="qcurve"/>
      <point x="102" y="356" type="line"/>
      <point x="28" y="356" type="line"/>
      <point x="32" y="387" type="line"/>
      <point x="140" y="387" type="line"/>
      <point x="133" y="330" type="line"/>
      <point x="106" y="114" type="line"/>
      <point x="104" y="79"/>
      <point x="145" y="29"/>
      <point x="188" y="26" type="qcurve"/>
      <point x="221" y="26"/>
      <point x="281" y="48"/>
      <point x="330" y="86"/>
      <point x="362" y="139"/>
      <point x="366" y="171" type="qcurve"/>
      <point x="386" y="336" type="line"/>
    </contour>
    <contour>
      <point x="378" y="0" type="line"/>
      <point x="352" y="0" type="line"/>
      <point x="351" y="-6" type="line"/>
      <point x="346" y="-33"/>
      <point x="316" y="-53"/>
      <point x="302" y="-61" type="qcurve"/>
      <point x="275" y="-79"/>
      <point x="252" y="-124"/>
      <point x="252" y="-147" type="qcurve"/>
      <point x="252" y="-189"/>
      <point x="296" y="-233"/>
      <point x="331" y="-233" type="qcurve"/>
      <point x="360" y="-233"/>
      <point x="414" y="-201"/>
      <point x="429" y="-169" type="qcurve"/>
      <point x="415" y="-164"/>
      <point x="405" y="-158" type="qcurve"/>
      <point x="397" y="-178"/>
      <point x="361" y="-203"/>
      <point x="338" y="-203" type="qcurve"/>
      <point x="312" y="-203"/>
      <point x="281" y="-170"/>
      <point x="281" y="-144" type="qcurve"/>
      <point x="281" y="-115"/>
      <point x="308" y="-85"/>
      <point x="342" y="-63"/>
      <point x="372" y="-42"/>
      <point x="375" y="-22" type="qcurve"/>
    </contour>
  </outline>
</glyph>
<glyph name="Zdotaccent" format="1">
  <advance width="648"/>
  <unicode hex="017B"/>
  <outline>
    <contour>
      <point x="169" y="707" type="qcurve"/>
      <point x="631" y="707" type="line"/>
      <point x="61" y="40" type="line"/>
      <point x="537" y="40" type="line"/>
      <point x="552" y="161" type="line"/>
      <point x="592" y="161" type="line"/>
      <point x="576" y="40" type="line"/>
      <point x="577" y="40" type="line"/>
      <point x="572" y="0" type="line"/>
      <point x="-16" y="0" type="line"/>
      <point x="44" y="71"/>
      <point x="192" y="249"/>
      <point x="347" y="432"/>
      <point x="495" y="606"/>
      <point x="554" y="673" type="qcurve"/>
      <point x="162" y="673" type="line"/>
      <point x="131" y="673"/>
      <point x="99" y="694"/>
      <point x="101" y="723" type="qcurve"/>
      <point x="103" y="743" type="line"/>
      <point x="143" y="743" type="line"/>
      <point x="141" y="730" type="line"/>
      <point x="140" y="719"/>
      <point x="152" y="707"/>
    </contour>
    <contour>
      <point x="356" y="774" type="qcurve"/>
      <point x="356" y="788"/>
      <point x="378" y="808"/>
      <point x="391" y="808" type="qcurve"/>
      <point x="402" y="808"/>
      <point x="417" y="792"/>
      <point x="417" y="780" type="qcurve"/>
      <point x="417" y="766"/>
      <point x="396" y="747"/>
      <point x="383" y="747" type="qcurve"/>
      <point x="372" y="747"/>
      <point x="356" y="763"/>
    </contour>
  </outline>
</glyph>
<glyph name="circumflex" format="1">
  <advance width="450"/>
  <unicode hex="02C6"/>
  <outline>
    <contour>
      <point x="308" y="609" type="qcurve"/>
      <point x="335" y="575"/>
      <point x="357" y="549" type="qcurve"/>
      <point x="376" y="526"/>
      <point x="410" y="486"/>
      <point x="413" y="481" type="qcurve"/>
      <point x="383" y="481" type="line"/>
      <point x="302" y="563" type="line"/>
      <point x="201" y="481" type="line"/>
      <point x="172" y="481" type="line"/>
      <point x="176" y="485"/>
      <point x="219" y="526"/>
      <point x="244" y="549" type="qcurve"/>
      <point x="273" y="576"/>
    </contour>
  </outline>
</glyph>
<glyph name="quotedblleft" format="1">
  <advance width="288"/>
  <unicode hex="201C"/>
  <outline>
    <contour>
      <point x="163" y="592" type="qcurve"/>
      <point x="144" y="572" type="line"/>
      <point x="118" y="599"/>
      <point x="102" y="673"/>
      <point x="115" y="714" type="qcurve"/>
      <point x="144" y="707" type="line"/>
      <point x="133" y="672"/>
      <point x="145" y="612"/>
    </contour>
    <contour>
      <point x="268" y="592" type="qcurve"/>
      <point x="248" y="572" type="line"/>
      <point x="222" y="599"/>
      <point x="207" y="673"/>
      <point x="220" y="714" type="qcurve"/>
      <point x="248" y="707" type="line"/>
      <point x="237" y="672"/>
      <point x="249" y="612"/>
    </contour>
  </outline>
</glyph>
<glyph name="quotedblright" format="1">
  <advance width="290"/>
  <unicode hex="201D"/>
  <outline>
    <contour>
      <point x="113" y="572" type="qcurve"/>
      <point x="109" y="577"/>
      <point x="103" y="587"/>
      <point x="98" y="592" type="qcurve"/>
      <point x="122" y="612"/>
      <point x="148" y="672"/>
      <point x="145" y="707" type="qcurve"/>
      <point x="176" y="714" type="line"/>
      <point x="180" y="673"/>
      <point x="145" y="599"/>
    </contour>
    <contour>
      <point x="217" y="572" type="qcurve"/>
      <point x="210" y="584"/>
      <point x="202" y="592" type="qcurve"/>
      <point x="226" y="612"/>
      <point x="252" y="672"/>
      <point x="250" y="707" type="qcurve"/>
      <point x="280" y="714" type="line"/>
      <point x="284" y="673"/>
      <point x="250" y="599"/>
    </contour>
  </outline>
</glyph>
<glyph name="quotedblbase" format="1">
  <advance width="310"/>
  <unicode hex="201E"/>
  <outline>
    <contour>
      <point x="142" y="-49" type="qcurve"/>
      <point x="127" y="-29" type="line"/>
      <point x="150" y="-9"/>
      <point x="177" y="50"/>
      <point x="174" y="85" type="qcurve"/>
      <point x="205" y="92" type="line"/>
      <point x="208" y="52"/>
      <point x="174" y="-22"/>
    </contour>
    <contour>
      <point x="38" y="-49" type="qcurve"/>
      <point x="23" y="-29" type="line"/>
      <point x="46" y="-9"/>
      <point x="72" y="50"/>
      <point x="70" y="85" type="qcurve"/>
      <point x="101" y="92" type="line"/>
      <point x="104" y="52"/>
      <point x="70" y="-22"/>
    </contour>
  </outline>
</glyph>
<glyph name="daggerdbl" format="1">
  <advance width="408"/>
  <unicode hex="2021"/>
  <outline>
    <contour>
      <point x="159" y="53" type="line"/>
      <point x="184" y="260" type="line"/>
      <point x="53" y="260" type="line"/>
      <point x="57" y="296" type="line"/>
      <point x="189" y="296" type="line"/>
      <point x="203" y="411" type="line"/>
      <point x="121" y="411" type="line"/>
      <point x="125" y="447" type="line"/>
      <point x="207" y="447" type="line"/>
      <point x="224" y="584" type="line"/>
      <point x="261" y="584" type="line"/>
      <point x="244" y="447" type="line"/>
      <point x="325" y="447" type="line"/>
      <point x="321" y="411" type="line"/>
      <point x="240" y="411" type="line"/>
      <point x="226" y="296" type="line"/>
      <point x="358" y="296" type="line"/>
      <point x="354" y="260" type="line"/>
      <point x="221" y="260" type="line"/>
      <point x="196" y="53" type="line"/>
    </contour>
  </outline>
</glyph>
<glyph name="guilsinglright" format="1">
  <advance width="285"/>
  <unicode hex="203A"/>
  <outline>
    <contour>
      <point x="45" y="111" type="line"/>
      <point x="77" y="140"/>
      <point x="151" y="211"/>
      <point x="183" y="240" type="qcurve"/>
      <point x="158" y="269"/>
      <point x="102" y="339"/>
      <point x="77" y="368" type="qcurve"/>
      <point x="82" y="410" type="line"/>
      <point x="97" y="393"/>
      <point x="136" y="348"/>
      <point x="178" y="301"/>
      <point x="217" y="256"/>
      <point x="232" y="240" type="qcurve"/>
      <point x="40" y="69" type="line"/>
    </contour>
  </outline>
</glyph>
<glyph name="trademark" format="1">
  <advance width="583"/>
  <unicode hex="2122"/>
  <outline>
    <contour>
      <point x="259" y="757" type="line"/>
      <point x="257" y="742" type="line"/>
      <point x="185" y="742" type="line"/>
      <point x="155" y="498" type="line"/>
      <point x="141" y="498" type="line"/>
      <point x="171" y="742" type="line"/>
      <point x="100" y="742" type="line"/>
      <point x="102" y="757" type="line"/>
    </contour>
    <contour>
      <point x="309" y="768" type="line"/>
      <point x="320" y="747"/>
      <point x="347" y="700"/>
      <point x="374" y="654"/>
      <point x="399" y="610"/>
      <point x="410" y="592" type="qcurve"/>
      <point x="418" y="601"/>
      <point x="452" y="644"/>
      <point x="493" y="695"/>
      <point x="537" y="748"/>
      <point x="554" y="768" type="qcurve"/>
      <point x="521" y="498" type="line"/>
      <point x="506" y="498" type="line"/>
      <point x="531" y="710" type="line"/>
      <point x="532" y="714"/>
      <point x="534" y="721"/>
      <point x="534" y="724" type="qcurve"/>
      <point x="519" y="706"/>
      <point x="486" y="664"/>
      <point x="451" y="621"/>
      <point x="419" y="581"/>
      <point x="406" y="566" type="qcurve"/>
      <point x="398" y="579"/>
      <point x="372" y="626"/>
      <point x="345" y="674"/>
      <point x="322" y="716"/>
      <point x="318" y="724" type="qcurve"/>
      <point x="318" y="721"/>
      <point x="318" y="714"/>
      <point x="317" y="710" type="qcurve"/>
      <point x="291" y="498" type="line"/>
      <point x="276" y="498" type="line"/>
    </contour>
  </outline>
</glyph>
<glyph name="greaterequal" format="1">
  <advance width="566"/>
  <unicode hex="2265"/>
  <outline>
    <contour>
      <point x="86" y="266" type="line"/>
      <point x="470" y="473" type="line"/>
      <point x="387" y="525"/>
      <point x="221" y="628"/>
      <point x="137" y="680" type="qcurve"/>
      <point x="142" y="727" type="line"/>
      <point x="551" y="473" type="line"/>
      <point x="433" y="410"/>
      <point x="199" y="283"/>
      <point x="80" y="219" type="qcurve"/>
    </contour>
    <contour>
      <point x="68" y="121" type="line"/>
      <point x="429" y="121" type="line"/>
      <point x="424" y="85" type="line"/>
      <point x="63" y="85" type="line"/>
    </contour>
  </outline>
</glyph>
<glyph name="fl" format="1">
  <advance width="550"/>
  <unicode hex="FB02"/>
  <outline>
    <contour>
      <point x="428" y="52" type="line"/>
      <point x="425" y="31" type="line"/>
      <point x="502" y="31" type="line"/>
      <point x="498" y="0" type="line"/>
      <point x="313" y="0" type="line"/>
      <point x="317" y="31" type="line"/>
      <point x="391" y="31" type="line"/>
      <point x="393" y="52" type="line"/>
      <point x="476" y="727" type="line"/>
      <point x="356" y="727" type="line"/>
      <point x="320" y="726"/>
      <point x="256" y="697"/>
      <point x="206" y="643"/>
      <point x="172" y="567"/>
      <point x="166" y="520" type="qcurve"/>
      <point x="149" y="388" type="line"/>
      <point x="280" y="388" type="line"/>
      <point x="276" y="356" type="line"/>
      <point x="145" y="356" type="line"/>
      <point x="107" y="41" type="line"/>
      <point x="106" y="31" type="line"/>
      <point x="206" y="31" type="line"/>
      <point x="202" y="0" type="line"/>
      <point x="-7" y="0" type="line"/>
      <point x="-3" y="31" type="line"/>
      <point x="71" y="31" type="line"/>
      <point x="111" y="356" type="line"/>
      <point x="44" y="356" type="line"/>
      <point x="48" y="388" type="line"/>
      <point x="115" y="388" type="line"/>
      <point x="131" y="517" type="line"/>
      <point x="138" y="575"/>
      <point x="179" y="664"/>
      <point x="240" y="725"/>
      <point x="317" y="756"/>
      <point x="360" y="758" type="qcurve"/>
      <point x="514" y="758" type="line"/>
      <point x="427" y="52" type="line"/>
    </contour>
  </outline>
</glyph>
